<svg width="16" height="16" viewBox="0 0 16 16" fill="none" xmlns="http://www.w3.org/2000/svg">
<path d="M8.00008 14.0001C7.91234 14.0006 7.82537 13.9838 7.74414 13.9506C7.66292 13.9175 7.58904 13.8686 7.52674 13.8068L2.34674 8.62013C1.69699 7.96359 1.33252 7.07718 1.33252 6.15347C1.33252 5.22975 1.69699 4.34335 2.34674 3.6868C3.00159 3.03381 3.88863 2.66711 4.81341 2.66711C5.73819 2.66711 6.62524 3.03381 7.28008 3.6868L8.00008 4.4068L8.72008 3.6868C9.37492 3.03381 10.262 2.66711 11.1867 2.66711C12.1115 2.66711 12.9986 3.03381 13.6534 3.6868C14.3032 4.34335 14.6676 5.22975 14.6676 6.15347C14.6676 7.07718 14.3032 7.96359 13.6534 8.62013L8.47341 13.8068C8.41112 13.8686 8.33724 13.9175 8.25602 13.9506C8.17479 13.9838 8.08782 14.0006 8.00008 14.0001ZM4.81341 4.00013C4.5312 3.99886 4.25153 4.05359 3.99062 4.16116C3.7297 4.26873 3.49273 4.427 3.29341 4.6268C2.89078 5.03155 2.66477 5.57923 2.66477 6.15013C2.66477 6.72104 2.89078 7.26872 3.29341 7.67347L8.00008 12.3868L12.7067 7.67347C13.1094 7.26872 13.3354 6.72104 13.3354 6.15013C13.3354 5.57923 13.1094 5.03155 12.7067 4.6268C12.2959 4.23861 11.752 4.02233 11.1867 4.02233C10.6215 4.02233 10.0776 4.23861 9.66674 4.6268L8.47341 5.8268C8.41144 5.88929 8.3377 5.93888 8.25646 5.97273C8.17522 6.00657 8.08809 6.024 8.00008 6.024C7.91207 6.024 7.82493 6.00657 7.74369 5.97273C7.66245 5.93888 7.58872 5.88929 7.52674 5.8268L6.33341 4.6268C6.1341 4.427 5.89712 4.26873 5.63621 4.16116C5.37529 4.05359 5.09563 3.99886 4.81341 4.00013V4.00013Z" fill="#FFD335"/>
</svg>
