<svg width="24" height="24" viewBox="0 0 24 24" fill="#C1A14E" xmlns="http://www.w3.org/2000/svg">
<path
    fill-rule="evenodd"
    clip-rule="evenodd"
    d="M10.9998 19.9556C8.42362 19.7239 6.4578 18.6083 5.0213 17.2212L2.70718 19.5354L1.29297 18.1212L3.71188 15.7022C2.83687 14.4836 2.29184 13.2263 2.03351 12.2575L3.96598 11.7422C4.57195 14.0146 7.0387 17.9999 11.9997 17.9999C14.6877 17.9999 16.5622 16.8916 17.8403 15.5579C19.1423 14.1992 19.8162 12.6109 20.0296 11.7573L21.9699 12.2424C21.7472 13.133 21.199 14.4853 20.2281 15.8139L22.5354 18.1212L21.1212 19.5355L18.9043 17.3186C17.4967 18.645 15.5575 19.7295 12.9998 19.9562V22.9999H10.9998V19.9556Z"
  />
</svg>
