<svg width="20" height="17" viewBox="0 0 20 17" fill="none" xmlns="http://www.w3.org/2000/svg">
<path fill-rule="evenodd" clip-rule="evenodd" d="M0 1.25C0 0.559644 0.559644 0 1.25 0H10.9052C11.5955 0 12.1552 0.559644 12.1552 1.25C12.1552 1.94036 11.5955 2.5 10.9052 2.5H1.25C0.559644 2.5 0 1.94036 0 1.25ZM0 8.125C0 7.43464 0.559644 6.875 1.25 6.875H18.75C19.4404 6.875 20 7.43464 20 8.125C20 8.81536 19.4404 9.375 18.75 9.375H1.25C0.559644 9.375 0 8.81536 0 8.125ZM0 15C0 14.3096 0.559644 13.75 1.25 13.75H14.5259C15.2162 13.75 15.7759 14.3096 15.7759 15C15.7759 15.6904 15.2162 16.25 14.5259 16.25H1.25C0.559644 16.25 0 15.6904 0 15Z" fill="#C1A14E"/>
</svg>
