<svg width="24" height="24" viewBox="0 0 24 24" fill="none" xmlns="http://www.w3.org/2000/svg">
<path d="M22.6097 7.74577L15.8088 6.75738L12.7687 0.593983C12.6856 0.425233 12.549 0.288626 12.3803 0.20559C11.9571 -0.00333829 11.4428 0.170769 11.2312 0.593983L8.19098 6.75738L1.39009 7.74577C1.20259 7.77255 1.03116 7.86095 0.899911 7.99488C0.741237 8.15796 0.6538 8.37738 0.656814 8.6049C0.659827 8.83242 0.753044 9.04944 0.915982 9.20827L5.83652 14.0056L4.67402 20.7797C4.64676 20.9373 4.66419 21.0993 4.72435 21.2475C4.78451 21.3957 4.88499 21.524 5.01438 21.618C5.14377 21.712 5.29691 21.7678 5.45643 21.7792C5.61594 21.7906 5.77546 21.757 5.91688 21.6824L11.9999 18.4842L18.0829 21.6824C18.249 21.7708 18.4419 21.8002 18.6267 21.7681C19.0928 21.6877 19.4062 21.2458 19.3258 20.7797L18.1633 14.0056L23.0838 9.20827C23.2178 9.07702 23.3062 8.90559 23.3329 8.71809C23.4053 8.24934 23.0785 7.81541 22.6097 7.74577V7.74577ZM16.0928 13.3306L17.0597 18.9636L11.9999 16.3065L6.94009 18.9663L7.90705 13.3333L3.8142 9.3422L9.47134 8.51988L11.9999 3.39577L14.5285 8.51988L20.1856 9.3422L16.0928 13.3306Z" fill="#C1A14E"/>
</svg>
