<svg width="24" height="24" viewBox="0 0 24 24" fill="none" xmlns="http://www.w3.org/2000/svg">
<path d="M17.4286 16.5692H17V10.4978C17 7.97813 15.1375 5.89598 12.7143 5.54955V4.85491C12.7143 4.46027 12.3946 4.14062 12 4.14062C11.6054 4.14062 11.2857 4.46027 11.2857 4.85491V5.54955C8.8625 5.89598 7 7.97813 7 10.4978V16.5692H6.57143C6.25536 16.5692 6 16.8246 6 17.1406V17.7121C6 17.7906 6.06429 17.8549 6.14286 17.8549H10C10 18.9585 10.8964 19.8549 12 19.8549C13.1036 19.8549 14 18.9585 14 17.8549H17.8571C17.9357 17.8549 18 17.7906 18 17.7121V17.1406C18 16.8246 17.7446 16.5692 17.4286 16.5692ZM12 18.7121C11.5268 18.7121 11.1429 18.3281 11.1429 17.8549H12.8571C12.8571 18.3281 12.4732 18.7121 12 18.7121ZM8.28571 16.5692V10.4978C8.28571 9.50491 8.67143 8.57277 9.37321 7.87098C10.075 7.1692 11.0071 6.78348 12 6.78348C12.9929 6.78348 13.925 7.1692 14.6268 7.87098C15.3286 8.57277 15.7143 9.50491 15.7143 10.4978V16.5692H8.28571Z" fill="#C1A14E"/>
</svg>
