<svg width="48" height="48" viewBox="0 0 48 48" fill="none" xmlns="http://www.w3.org/2000/svg">
<path d="M22.8001 15.1998V3.7998H11.4001C10.3923 3.7998 9.42573 4.20016 8.71309 4.9128C8.00045 5.62544 7.6001 6.59198 7.6001 7.5998V40.5331C7.6001 41.541 8.00045 42.5075 8.71309 43.2201C9.42573 43.9328 10.3923 44.3331 11.4001 44.3331H23.4512C21.6644 42.1741 20.5736 39.5244 20.3225 36.7331H19.0001C18.6642 36.7331 18.342 36.5997 18.1044 36.3621C17.8669 36.1246 17.7334 35.8024 17.7334 35.4665C17.7334 35.1305 17.8669 34.8083 18.1044 34.5708C18.342 34.3333 18.6642 34.1998 19.0001 34.1998H20.3225C20.3999 33.3427 20.5568 32.4946 20.7912 31.6665H19.0001C18.6642 31.6665 18.342 31.533 18.1044 31.2955C17.8669 31.0579 17.7334 30.7357 17.7334 30.3998C17.7334 30.0639 17.8669 29.7417 18.1044 29.5041C18.342 29.2666 18.6642 29.1331 19.0001 29.1331H21.7868C22.2504 28.2262 22.8102 27.3775 23.4512 26.5998H19.0001C18.6642 26.5998 18.342 26.4664 18.1044 26.2288C17.8669 25.9913 17.7334 25.6691 17.7334 25.3331C17.7334 24.9972 17.8669 24.675 18.1044 24.4375C18.342 24.1999 18.6642 24.0665 19.0001 24.0665H26.1872C28.4545 22.4705 31.2184 21.5331 34.2001 21.5331C35.5174 21.5331 36.7917 21.7155 38.0001 22.0575V18.9998H26.6001C25.5923 18.9998 24.6257 18.5995 23.9131 17.8868C23.2005 17.1742 22.8001 16.2076 22.8001 15.1998ZM12.6668 25.3331C12.6668 24.9972 12.8002 24.675 13.0378 24.4375C13.2753 24.1999 13.5975 24.0665 13.9334 24.0665C14.2694 24.0665 14.5916 24.1999 14.8291 24.4375C15.0666 24.675 15.2001 24.9972 15.2001 25.3331C15.2001 25.6691 15.0666 25.9913 14.8291 26.2288C14.5916 26.4664 14.2694 26.5998 13.9334 26.5998C13.5975 26.5998 13.2753 26.4664 13.0378 26.2288C12.8002 25.9913 12.6668 25.6691 12.6668 25.3331ZM12.6668 30.3998C12.6668 30.0639 12.8002 29.7417 13.0378 29.5041C13.2753 29.2666 13.5975 29.1331 13.9334 29.1331C14.2694 29.1331 14.5916 29.2666 14.8291 29.5041C15.0666 29.7417 15.2001 30.0639 15.2001 30.3998C15.2001 30.7357 15.0666 31.0579 14.8291 31.2955C14.5916 31.533 14.2694 31.6665 13.9334 31.6665C13.5975 31.6665 13.2753 31.533 13.0378 31.2955C12.8002 31.0579 12.6668 30.7357 12.6668 30.3998ZM13.9334 34.1998C14.2694 34.1998 14.5916 34.3333 14.8291 34.5708C15.0666 34.8083 15.2001 35.1305 15.2001 35.4665C15.2001 35.8024 15.0666 36.1246 14.8291 36.3621C14.5916 36.5997 14.2694 36.7331 13.9334 36.7331C13.5975 36.7331 13.2753 36.5997 13.0378 36.3621C12.8002 36.1246 12.6668 35.8024 12.6668 35.4665C12.6668 35.1305 12.8002 34.8083 13.0378 34.5708C13.2753 34.3333 13.5975 34.1998 13.9334 34.1998ZM25.3334 15.1998V4.43314L37.3668 16.4665H26.6001C26.2642 16.4665 25.942 16.333 25.7044 16.0955C25.4669 15.8579 25.3334 15.5357 25.3334 15.1998ZM45.6001 35.4665C45.6001 38.4899 44.399 41.3896 42.2611 43.5275C40.1232 45.6654 37.2236 46.8665 34.2001 46.8665C31.1766 46.8665 28.277 45.6654 26.1391 43.5275C24.0012 41.3896 22.8001 38.4899 22.8001 35.4665C22.8001 32.443 24.0012 29.5434 26.1391 27.4055C28.277 25.2675 31.1766 24.0665 34.2001 24.0665C37.2236 24.0665 40.1232 25.2675 42.2611 27.4055C44.399 29.5434 45.6001 32.443 45.6001 35.4665ZM35.4668 27.8665C35.4668 27.5305 35.3333 27.2083 35.0958 26.9708C34.8582 26.7333 34.536 26.5998 34.2001 26.5998C33.8642 26.5998 33.542 26.7333 33.3044 26.9708C33.0669 27.2083 32.9334 27.5305 32.9334 27.8665V35.4665C32.9334 35.8024 33.0669 36.1246 33.3044 36.3621C33.542 36.5997 33.8642 36.7331 34.2001 36.7331H39.2668C39.6027 36.7331 39.9249 36.5997 40.1624 36.3621C40.4 36.1246 40.5334 35.8024 40.5334 35.4665C40.5334 35.1305 40.4 34.8083 40.1624 34.5708C39.9249 34.3333 39.6027 34.1998 39.2668 34.1998H35.4668V27.8665Z" fill="#C1A14E"/>
</svg>
