<svg width="24" height="24" viewBox="0 0 24 24" fill="none" xmlns="http://www.w3.org/2000/svg">
    <path fill-rule="evenodd" clip-rule="evenodd"
        d="M14.2398 3.41322C14.2398 4.74601 13.1594 5.82644 11.8266 5.82644C10.4938 5.82644 9.41338 4.74601 9.41338 3.41322C9.41338 2.08044 10.4938 1 11.8266 1C13.1594 1 14.2398 2.08044 14.2398 3.41322ZM9.75797 6.11764H13.8949C14.6257 6.1198 15.326 6.41107 15.8427 6.92782C16.3595 7.44457 16.6507 8.14482 16.6529 8.87561V13.5297C16.653 13.6456 16.6298 13.7603 16.5845 13.8671C16.5393 13.9738 16.473 14.0703 16.3896 14.1508C16.3062 14.2313 16.2074 14.2941 16.0992 14.3356C15.9909 14.377 15.8754 14.3962 15.7596 14.392C15.2924 14.3752 14.9292 13.9774 14.9292 13.5099V9.22122C14.9293 9.17396 14.9196 9.12718 14.9009 9.0838C14.8822 9.04041 14.8547 9.00133 14.8202 8.969C14.7858 8.93667 14.745 8.91178 14.7005 8.89586C14.656 8.87994 14.6087 8.87334 14.5616 8.87647C14.473 8.88419 14.3905 8.92512 14.3308 8.99105C14.2711 9.05699 14.2386 9.14305 14.2397 9.23199V21.6743C14.2397 21.9372 14.1352 22.1893 13.9494 22.3752C13.7635 22.561 13.5114 22.6655 13.2485 22.6655C12.9857 22.6655 12.7336 22.561 12.5477 22.3752C12.3618 22.1893 12.2574 21.9372 12.2574 21.6743V15.512C12.2575 15.4529 12.2455 15.3944 12.222 15.3401C12.1986 15.2859 12.1643 15.237 12.1211 15.1966C12.078 15.1562 12.027 15.125 11.9714 15.1052C11.9157 15.0853 11.8565 15.0771 11.7976 15.081C11.6867 15.0909 11.5837 15.1423 11.5091 15.225C11.4346 15.3076 11.394 15.4153 11.3955 15.5266V21.6743C11.3955 21.9372 11.2911 22.1893 11.1052 22.3752C10.9193 22.561 10.6672 22.6655 10.4044 22.6655C10.1415 22.6655 9.8894 22.561 9.70352 22.3752C9.51765 22.1893 9.41322 21.9372 9.41322 21.6743V9.22122C9.41333 9.17396 9.40371 9.12718 9.38498 9.0838C9.36624 9.04041 9.33878 9.00133 9.30431 8.969C9.26984 8.93667 9.22909 8.91178 9.18459 8.89586C9.14009 8.87994 9.09279 8.87334 9.04564 8.87647C8.95702 8.88419 8.8746 8.92512 8.8149 8.99105C8.7552 9.05699 8.72263 9.14305 8.72373 9.23199V13.5297C8.72375 13.6455 8.70042 13.7602 8.65512 13.8668C8.60983 13.9734 8.54351 14.0698 8.46012 14.1502C8.37673 14.2306 8.27799 14.2934 8.1698 14.3348C8.0616 14.3762 7.94617 14.3953 7.83041 14.3911C7.36328 14.3743 7 13.9766 7 13.509V8.87561C7.00216 8.14482 7.29342 7.44457 7.81018 6.92782C8.32693 6.41107 9.02717 6.1198 9.75797 6.11764Z"
        fill="#424242" />
</svg>